#!OML:ASF E:\Steps\Project 1\Capture day 1\Session 2\Subject.ASF
:FULLY-SPECIFIED
:DEGREES
302
root 11.9154 17.0948 9.34215 -146.668 -0.67462 175.912
lowerback -16.1548 -3.50169 -4.07399
upperback 1.93418 -3.9526 0.617202
thorax 11.5655 -2.16105 1.95215
lowerneck -2.0316 -2.22028 -0.0647159
upperneck 14.0792 -2.45744 0.613483
head 5.07546 -0.93504 0.120332
rclavicle 7.45443e-016 -1.19271e-015
rhumerus -41.7219 3.56451 -85.5183
rradius 39.7431
rwrist -7.50519
rhand -2.95401 -49.4659
rfingers 7.12502
rthumb 22.7581 -78.1436
lclavicle 7.45443e-016 -1.19271e-015
lhumerus -39.0166 -5.77858 74.2888
lradius 34.0703
lwrist 3.68691
lhand -18.989 -9.59501
lfingers 7.12502
lthumb 7.31573 20.2585
rfemur -44.5799 1.00409 19.1699
rtibia 27.6869
rfoot -24.7712 -3.14408
rtoes -17.2569
lfemur -47.7495 -11.8187 -22.0448
ltibia 32.1165
lfoot -12.6882 -1.8317
ltoes -15.9034
303
root 11.9285 17.0976 9.29943 -146.918 -0.866486 176.146
lowerback -16.4263 -3.53865 -3.94797
upperback 1.98168 -4.01733 0.643947
thorax 11.7752 -2.18566 1.87774
lowerneck -2.32869 -2.14703 0.0161792
upperneck 14.7119 -2.36333 0.61196
head 4.79969 -0.878309 0.0929832
rclavicle -1.09829e-014 2.88238e-015
rhumerus -41.7257 3.13475 -85.4045
rradius 39.4002
rwrist -7.4201
rhand -2.87274 -49.6013
rfingers 7.12502
rthumb 22.8361 -78.2694
lclavicle -1.09829e-014 2.88238e-015
lhumerus -38.7107 -5.66995 74.1952
lradius 34.0184
lwrist 3.60891
lhand -18.9478 -9.98171
lfingers 7.12502
lthumb 7.35555 19.8704
rfemur -43.9453 1.28543 19.4659
rtibia 27.4465
rfoot -24.962 -3.39485
rtoes -17.2075
lfemur -46.943 -11.8077 -21.836
ltibia 31.2789
lfoot -12.1834 -1.4484
ltoes -13.9523
304
root 11.9428 17.1017 9.26269 -147.062 -1.02118 176.31
lowerback -16.6658 -3.61352 -3.89811
upperback 1.92426 -4.12198 0.659065
thorax 11.8547 -2.23214 1.82678
lowerneck -2.64046 -2.07865 0.131673
upperneck 15.1002 -2.25334 0.526492
head 4.96906 -0.8132 0.0493737
rclavicle 2.26615e-014 -7.05686e-015
rhumerus -41.9824 2.89203 -85.3563
rradius 39.2594
rwrist -7.51159
rhand -2.8834 -49.5644
rfingers 7.12502
rthumb 22.8259 -78.2337
lclavicle 2.26615e-014 -7.05686e-015
lhumerus -38.5153 -5.43937 74.0777
lradius 33.9013
lwrist 3.52515
lhand -18.975 -9.77611
lfingers 7.12502
lthumb 7.32933 20.0769
rfemur -43.4563 1.54617 19.6463
rtibia 27.13
rfoot -25.0235 -3.58518
rtoes -16.6406
lfemur -46.3391 -11.7725 -21.6695
ltibia 30.5464
lfoot -11.7735 -0.995855
ltoes -14.0995
305
root 11.9572 17.1058 9.22874 -147.222 -1.08571 176.329
lowerback -16.8059 -3.69306 -3.99252
upperback 1.79875 -4.20321 0.60198
thorax 11.8023 -2.27386 1.79083
lowerneck -2.65574 -2.0646 0.275431
upperneck 15.3238 -2.21375 0.434431
head 5.03769 -0.782147 -0.00106488
rclavicle -2.43511e-014 3.97569e-016
rhumerus -42.3074 2.61127 -85.3555
rradius 39.0372
rwrist -7.50143
rhand -3.1013 -49.7901
rfingers 7.12502
rthumb 22.6167 -78.4851
lclavicle -2.43511e-014 3.97569e-016
lhumerus -38.601 -5.54788 74.0503
lradius 33.9476
lwrist 3.58931
lhand -19.4126 -9.59581
lfingers 7.12502
lthumb 6.90687 20.2715
rfemur -42.9868 1.85408 19.6003
rtibia 26.8156
rfoot -25.0436 -3.87192
rtoes -16.894
lfemur -45.7088 -11.7954 -21.6486
ltibia 29.8668
lfoot -11.5108 -0.627577
ltoes -13.7391
306
root 11.9687 17.108 9.1949 -147.39 -1.12989 176.29
lowerback -16.894 -3.78754 -4.11391
upperback 1.5845 -4.30664 0.558457
thorax 11.6239 -2.32759 1.78449
lowerneck -2.3962 -2.10775 0.101292
upperneck 15.5152 -2.24444 0.571915
head 5.05663 -0.784951 0.0714129
rclavicle -1.22253e-014 -1.59028e-014
rhumerus -42.7586 2.40414 -85.3126
rradius 38.7148
rwrist -7.43385
rhand -3.52149 -49.8347
rfingers 7.12502
rthumb 22.2134 -78.5783
lclavicle -1.22253e-014 -1.59028e-014
lhumerus -38.9697 -5.51463 74.0065
lradius 34.1648
lwrist 3.71776
lhand -19.3158 -10.0293
lfingers 7.12502
lthumb 7.00034 19.835
rfemur -42.5017 2.08198 19.5209
rtibia 26.52
rfoot -25.0568 -4.08872
rtoes -17.3822
lfemur -44.9987 -11.876 -21.6847
ltibia 29.1796
lfoot -11.3131 -0.370674
ltoes -13.3052
307
root 11.9792 17.1098 9.15935 -147.562 -1.14727 176.237
lowerback -17.0725 -3.85726 -4.27843
upperback 1.46894 -4.36324 0.542025
thorax 11.6127 -2.36431 1.83669
lowerneck -2.28195 -2.13975 -0.127631
upperneck 15.5786 -2.27025 0.657551
head 5.06082 -0.80022 0.135671
rclavicle -2.127e-014 -3.37934e-015
rhumerus -43.1094 2.12684 -85.1707
rradius 38.49
rwrist -7.36997
rhand -3.87548 -49.4878
rfingers 7.12502
rthumb 21.8735 -78.2715
lclavicle -2.127e-014 -3.37934e-015
lhumerus -39.0827 -5.33777 73.9963
lradius 34.3274
lwrist 3.72326
lhand -19.0265 -10.3611
lfingers 7.12502
lthumb 7.27958 19.4937
rfemur -42.0004 2.21767 19.4542
rtibia 26.2096
rfoot -25.0423 -4.22359
rtoes -17.6902
lfemur -44.2248 -11.8642 -21.7787
ltibia 28.4134
lfoot -11.1204 -0.302411
ltoes -14.1966
308
root 11.9905 17.1134 9.12494 -147.728 -1.1831 176.248
lowerback -17.3073 -3.82554 -4.38422
upperback 1.51051 -4.28002 0.462034
thorax 11.7915 -2.33086 1.81658
lowerneck -2.71146 -2.24053 -0.214753
upperneck 15.7838 -2.44613 0.910179
head 5.20244 -0.875231 0.21467
rclavicle 7.95139e-015 -9.54166e-015
rhumerus -43.2255 1.36203 -85.0078
rradius 38.3766
rwrist -7.09604
rhand -4.0657 -49.1705
rfingers 7.12502
rthumb 21.6909 -77.9754
lclavicle 7.95139e-015 -9.54166e-015
lhumerus -38.8042 -5.66622 74.0739
lradius 34.4568
lwrist 3.72227
lhand -19.4628 -10.4458
lfingers 7.12502
lthumb 6.85839 19.4232
rfemur -41.4846 2.47437 19.4171
rtibia 25.8595
rfoot -25.09 -4.44983
rtoes -17.9941
lfemur -43.497 -11.8215 -21.7624
ltibia 27.6889
lfoot -11.1248 -0.338622
ltoes -15.7768
309
root 11.9953 17.1168 9.09865 -147.712 -1.38633 176.338
lowerback -17.6469 -3.93655 -4.30907
upperback 1.32262 -4.4444 0.508929
thorax 11.7845 -2.40489 1.76612
lowerneck -2.11062 -2.04505 -0.330862
upperneck 15.3182 -2.18497 0.99379
head 4.95733 -0.755728 0.279327
rclavicle -9.64106e-015 2.98177e-014
rhumerus -43.759 1.06853 -84.8616
rradius 38.4138
rwrist -6.78142
rhand -4.44462 -49.1624
rfingers 7.12502
rthumb 21.3269 -78.0088
lclavicle -9.64106e-015 2.98177e-014
lhumerus -39.0085 -5.57555 74.1546
lradius 34.6246
lwrist 3.83153
lhand -19.7784 -10.3131
lfingers 7.12502
lthumb 6.55374 19.5655
rfemur -41.1783 2.5954 19.5565
rtibia 25.5283
rfoot -25.149 -4.5738
rtoes -17.8723
lfemur -43.1117 -11.861 -21.5987
ltibia 27.1743
lfoot -11.198 -0.565423
ltoes -15.4036
310
root 11.9935 17.1203 9.07118 -147.643 -1.64235 176.339
lowerback -17.9994 -4.10886 -4.19868
upperback 1.09917 -4.7031 0.575309
thorax 11.7493 -2.52208 1.68932
lowerneck -1.59358 -1.84461 -0.456494
upperneck 15.054 -1.87992 0.883325
head 4.7868 -0.619646 0.285083
rclavicle 2.78299e-014 -1.92821e-014
rhumerus -44.2355 1.04991 -84.7149
rradius 38.3292
rwrist -6.70796
rhand -5.07825 -48.9816
rfingers 7.12502
rthumb 20.7182 -77.8956
lclavicle 2.78299e-014 -1.92821e-014
lhumerus -39.2029 -5.09649 74.1699
lradius 34.7634
lwrist 3.84024
lhand -19.7771 -10.1121
lfingers 7.12502
lthumb 6.55503 19.7664
rfemur -40.9161 2.44844 19.687
rtibia 25.1714
rfoot -25.1422 -4.48835
rtoes -17.3618
lfemur -42.7553 -11.903 -21.6072
ltibia 26.6486
lfoot -11.2056 -0.911487
ltoes -14.0454
